<svg width="200" height="204" viewBox="0 0 200 204" fill="none" xmlns="http://www.w3.org/2000/svg">
<g clip-path="url(#clip0_35_18)">
<path d="M128.309 154.071C126.543 159.958 125.998 161.262 125.295 164.923C123.855 172.398 119.66 176.836 112.321 176.873C82.719 177.021 53.1145 177.036 23.508 176.917C15.5372 176.88 10.9939 171.55 11.0001 162.901C11.0288 133.642 11.0936 104.382 11.1942 75.1207C11.2158 63.8672 11.4193 52.6045 11.1049 41.3603C10.8275 31.574 16.5544 26.9012 25.0677 26.9998C57.4318 27.379 89.8206 27.1108 122.2 27.1046C130.917 27.1046 135.648 31.7651 135.63 40.3585C135.611 49.365 135.543 58.3714 135.543 67.3687C135.543 72.1801 134.754 71.6931 129.178 75.8666C126.74 77.5495 126.978 73.5425 126.978 73.0093C126.978 64.909 126.959 56.8118 127.012 48.7146C127.11 34.2494 128.359 35.769 113.884 35.769C84.9639 35.769 56.0447 35.769 27.1266 35.769C20.1082 35.769 19.6798 36.2221 19.686 42.9815C19.7168 82.7894 19.7877 122.597 19.686 162.402C19.686 166.409 21.0237 168.077 25.0307 168.055C53.9406 167.907 82.8505 167.814 111.76 167.775C114.889 167.775 116.328 166.542 116.966 163.379C118.011 158.185 119.602 153.1 120.973 147.968C125.563 135.847 131.799 124.417 139.507 113.998C146.415 104.587 154.666 96.558 163.62 89.1636C165.241 87.8259 166.773 87.5361 168.166 89.0218C169.689 90.6431 168.746 92.2305 167.445 93.5559C166.144 94.8813 164.73 96.219 163.355 97.532C146.815 113.369 134.85 132.038 128.309 154.071Z" fill="#17282A"/>
<path fill-rule="evenodd" clip-rule="evenodd" d="M128.309 154.071C134.85 132.039 146.803 113.384 163.355 97.5353C163.613 97.2893 163.871 97.0435 164.13 96.7976L164.13 96.7974C165.251 95.7307 166.376 94.6612 167.445 93.5591C168.761 92.2029 169.689 90.6464 168.166 89.0251C166.773 87.5394 165.241 87.8292 163.62 89.1669C154.681 96.5644 146.415 104.578 139.507 114.001C131.799 124.42 125.563 135.851 120.973 147.971C110.543 123.784 114.753 93.4821 143.061 76.8747C155.766 69.4217 169.023 64.5763 183.076 61.1241C185.609 60.5077 187.283 60.8714 187.492 63.667C188.409 75.7903 188.509 87.8001 186.515 99.3854L174 107.429L185.069 106.235C184.167 109.812 183.034 113.341 181.63 116.812L162 129.429L176.045 127.914C175.646 128.567 175.235 129.218 174.812 129.866C166.018 143.323 152.311 149.765 137.008 152.983C134.143 153.581 131.233 153.945 128.309 154.071Z" fill="#6AA766"/>
<path d="M103.182 69.5172H41.0711C38.5295 69.5172 36.4692 71.5769 36.4692 74.1175C36.4692 76.6582 38.5295 78.7179 41.0711 78.7179H103.182C105.724 78.7179 107.784 76.6582 107.784 74.1175C107.784 71.5769 105.724 69.5172 103.182 69.5172Z" fill="#17282A"/>
<path d="M96.5493 95.1341H40.843C38.4274 95.1341 36.4692 97.0924 36.4692 99.5079V99.961C36.4692 102.377 38.4274 104.335 40.843 104.335H96.5493C98.9649 104.335 100.923 102.377 100.923 99.961V99.5079C100.923 97.0924 98.9649 95.1341 96.5493 95.1341Z" fill="#17282A"/>
<path d="M81.6557 121.127H40.282C38.1762 121.127 36.4692 122.834 36.4692 124.94V126.515C36.4692 128.621 38.1762 130.328 40.282 130.328H81.6557C83.7614 130.328 85.4685 128.621 85.4685 126.515V124.94C85.4685 122.834 83.7614 121.127 81.6557 121.127Z" fill="#17282A"/>
</g>
<defs>
<clipPath id="clip0_35_18">
<rect width="177.121" height="150" fill="white" transform="translate(11 27)"/>
</clipPath>
</defs>
</svg>
